<svg xmlns="http://www.w3.org/2000/svg" viewBox="0 0 512 512" role="img" aria-label="Pour Toujours logo">
  <defs>
    <linearGradient id="globe" x1="0" y1="0" x2="1" y2="1">
      <stop offset="0" stop-color="#69B6AE"/>
      <stop offset="1" stop-color="#174C4B"/>
    </linearGradient>
  </defs>
  <circle cx="256" cy="256" r="158" fill="#0A3033"/>
  <circle cx="256" cy="256" r="132" fill="url(#globe)"/>
  <path d="M170 176c28-34 69-54 114-52l-20 27-28 8-18 31-31 9-17-23Zm107 88 39-43 55 13 13 40-35 30-22 48-42 12-28-36 20-64Zm-92 39 37 13 18 45-31 18-37-33 13-43Z" fill="#0B3A43" opacity=".92"/>
  <ellipse cx="256" cy="256" rx="208" ry="78" fill="none" stroke="#F5F2E9" stroke-width="20" transform="rotate(-17 256 256)"/>
  <path d="M74 298c74 36 145 44 221 22 60-17 110-50 148-93" fill="none" stroke="#E8B64C" stroke-width="12" stroke-linecap="round"/>
  <g fill="#E8B64C">
    <path d="M395 104l8 20 20 8-20 8-8 20-8-20-20-8 20-8 8-20Z"/>
    <path d="M104 318l7 17 17 7-17 7-7 17-7-17-17-7 17-7 7-17Z"/>
  </g>
  <g fill="#A9D5C7">
    <circle cx="126" cy="183" r="10"/>
    <circle cx="411" cy="326" r="10"/>
  </g>
</svg>
